<svg xmlns="http://www.w3.org/2000/svg" xmlns:xlink="http://www.w3.org/1999/xlink" fill="none" version="1.1" width="497" height="140" viewBox="0 0 497 140"><defs><mask id="master_svg0_107_23" style="mask-type:alpha" maskUnits="objectBoundingBox"><g><rect x="0" y="0" width="140" height="140" rx="20" fill="#FFFFFF" fill-opacity="1"/></g></mask><filter id="master_svg1_107_24" filterUnits="objectBoundingBox" color-interpolation-filters="sRGB" x="-2.57890239554702" y="-2.57890239554702" width="6.15780479109404" height="6.15780479109404"><feFlood flood-opacity="0" result="BackgroundImageFix"/><feBlend mode="normal" in="SourceGraphic" in2="BackgroundImageFix" result="shape"/><feGaussianBlur stdDeviation="51.325218200683594" result="effect1_foregroundBlur"/></filter><filter id="master_svg2_107_25" filterUnits="objectBoundingBox" color-interpolation-filters="sRGB" x="-2.57890239554702" y="-2.57890239554702" width="6.15780479109404" height="6.15780479109404"><feFlood flood-opacity="0" result="BackgroundImageFix"/><feBlend mode="normal" in="SourceGraphic" in2="BackgroundImageFix" result="shape"/><feGaussianBlur stdDeviation="51.325218200683594" result="effect1_foregroundBlur"/></filter><filter id="master_svg3_107_28" filterUnits="objectBoundingBox" color-interpolation-filters="sRGB" x="0" y="0" width="1" height="1"><feFlood flood-opacity="0" result="BackgroundImageFix"/><feBlend mode="normal" in="SourceGraphic" in2="BackgroundImageFix" result="shape"/><feGaussianBlur in="BackgroundImageFix" stdDeviation="14.900869369506836"/><feComposite in2="SourceAlpha" operator="in" result="effect1_foregroundBlur"/><feBlend mode="normal" in="SourceGraphic" in2="effect1_foregroundBlur" result="shape"/></filter><filter id="master_svg4_107_29" filterUnits="objectBoundingBox" color-interpolation-filters="sRGB" x="0" y="0" width="1" height="1"><feFlood flood-opacity="0" result="BackgroundImageFix"/><feBlend mode="normal" in="SourceGraphic" in2="BackgroundImageFix" result="shape"/><feGaussianBlur in="BackgroundImageFix" stdDeviation="19.867826461791992"/><feComposite in2="SourceAlpha" operator="in" result="effect1_foregroundBlur"/><feBlend mode="normal" in="SourceGraphic" in2="effect1_foregroundBlur" result="shape"/></filter><linearGradient x1="0" y1="0.4999496340751648" x2="1" y2="0.4999496340751648" id="master_svg5_0_517"><stop offset="0%" stop-color="#15C1B1" stop-opacity="1"/><stop offset="100%" stop-color="#773490" stop-opacity="1"/></linearGradient><linearGradient x1="0.1458461880683899" y1="0.8581688404083252" x2="0.9276379921803736" y2="0.7707365952400558" id="master_svg6_0_518"><stop offset="0%" stop-color="#FF9535" stop-opacity="1"/><stop offset="100%" stop-color="#FFF294" stop-opacity="1"/></linearGradient><linearGradient x1="0.14034001529216766" y1="0.6281591653823853" x2="0.8929785977770627" y2="0.10550582168751621" id="master_svg7_0_521"><stop offset="0%" stop-color="#FF5F10" stop-opacity="1"/><stop offset="100%" stop-color="#FFB744" stop-opacity="1"/></linearGradient><linearGradient x1="0.14034001529216766" y1="0.6281591653823853" x2="1.0086635983508048" y2="0.6064702281882006" id="master_svg8_0_521"><stop offset="0%" stop-color="#FF5F10" stop-opacity="1"/><stop offset="100%" stop-color="#FFB744" stop-opacity="1"/></linearGradient><linearGradient x1="-2.951754972970567e-16" y1="0.4999977648258209" x2="1" y2="0.4999977648258209" id="master_svg9_0_525"><stop offset="0%" stop-color="#15C1B1" stop-opacity="1"/><stop offset="100%" stop-color="#773490" stop-opacity="1"/></linearGradient><linearGradient x1="0.1458461880683899" y1="0.8581688404083252" x2="0.9462105301028666" y2="0.7389996203041784" id="master_svga_0_526"><stop offset="0%" stop-color="#FF9535" stop-opacity="1"/><stop offset="100%" stop-color="#FFF294" stop-opacity="1"/></linearGradient><linearGradient x1="0.14034001529216766" y1="0.6281591653823853" x2="0.6937726926195528" y2="-0.00714400852246222" id="master_svgb_0_521"><stop offset="0%" stop-color="#FF5F10" stop-opacity="1"/><stop offset="100%" stop-color="#FFB744" stop-opacity="1"/></linearGradient><linearGradient x1="0.1458461880683899" y1="0.8581688404083252" x2="0.8573280572891235" y2="0.14204713702201843" id="master_svgc_0_531"><stop offset="0%" stop-color="#FF9535" stop-opacity="1"/><stop offset="100%" stop-color="#FFF294" stop-opacity="1"/></linearGradient></defs><g><g><g mask="url(#master_svg0_107_23)"><g><rect x="0" y="0" width="140" height="140" rx="20" fill="#FF6400" fill-opacity="1"/></g><g style="opacity:0.312593013048172;" filter="url(#master_svg1_107_24)"><ellipse cx="-0.980438232421875" cy="6.078338623046875" rx="39.803924560546875" ry="39.803924560546875" fill="#FFE918" fill-opacity="1"/></g><g style="opacity:0.4381975531578064;" filter="url(#master_svg2_107_25)"><ellipse cx="70.78427124023438" cy="135.88241577148438" rx="39.803924560546875" ry="39.803924560546875" fill="#FFC61F" fill-opacity="1"/></g><g><ellipse cx="70.60869598388672" cy="140.00169944763184" rx="75.47826385498047" ry="29.215688705444336" fill="#FFFFFF" fill-opacity="1"/></g><g filter="url(#master_svg3_107_28)"><ellipse cx="114.43480682373047" cy="134.5217514038086" rx="75.47826385498047" ry="31.043479919433594" fill="#FFFFFF" fill-opacity="0.2564639151096344"/></g><g filter="url(#master_svg4_107_29)"><ellipse cx="25.56517791748047" cy="134.5217514038086" rx="75.47826385498047" ry="31.043479919433594" fill="#FFFFFF" fill-opacity="0.3376348614692688"/></g><g style="opacity:0.3376348614692688;"><ellipse cx="96.17394256591797" cy="138.1738510131836" rx="75.47826385498047" ry="31.043479919433594" fill="#FFFFFF" fill-opacity="1"/></g><g style="opacity:0.3376348614692688;"><ellipse cx="43.82610321044922" cy="138.1738510131836" rx="75.47826385498047" ry="31.043479919433594" fill="#FFFFFF" fill-opacity="1"/></g><g><ellipse cx="70.60869598388672" cy="138.23710823059082" rx="75.47826385498047" ry="30.98039436340332" fill="#FFFFFF" fill-opacity="1"/></g><g><g><path d="M94.9565716796875,125.13609296875C94.9565716796875,125.13609296875,90.9056516796875,125.75752296875,87.6522216796875,125.06107296875L87.6522216796875,122.95654296875C89.3655116796875,123.97866296875,91.8853516796875,125.04589296875,94.9565716796875,125.13609296875Z" fill="url(#master_svg5_0_517)" fill-opacity="1"/><path d="M94.9565716796875,125.13609296875C94.9565716796875,125.13609296875,90.9056516796875,125.75752296875,87.6522216796875,125.06107296875L87.6522216796875,122.95654296875C89.3655116796875,123.97866296875,91.8853516796875,125.04589296875,94.9565716796875,125.13609296875Z" fill="url(#master_svg6_0_518)" fill-opacity="1"/></g><g><path d="M84.79255703125,113.80762C83.69805703125,112.601096,82.01430703125,112,79.74181703125,112C77.46932703125,112,75.88981703125,112.605863,74.75334703125,113.82236C73.61191803125,115.04405,73.04345703125,116.82654,73.04345703125,119.17978L73.04345703125,124.3868C73.07458703125,124.5619,73.11654483125,124.7422,73.19459503125,124.9025C73.92953403125,126.3895,74.62792703125,128.3024,76.48895703125,128.8381C76.81740703125,128.933,77.18238703125,129.0032,77.58888703125,129.0435C77.42195703125,128.4077,77.33352703125,127.5414,77.33352703125,126.4497L77.33352703125,119.77048C77.33352703125,118.23328,77.49504703125,117.1468,77.82348703125,116.52577C78.14651703125,115.89997,78.78761703125,115.58967,79.74181703125,115.58967C80.69601703125,115.58967,81.33666703125,115.89997,81.67548703125,116.52577C82.00888703125,117.1468,82.17581703125,118.23328,82.17581703125,119.77048L82.17581703125,126.4497C82.17581703125,127.3962,82.11310703125,128.172,81.98813703125,128.7731L82.28544703125,128.718C82.42621703125,128.6929,82.57238703125,128.663,82.72352703125,128.6331C83.54685703125,128.4779,84.44335703125,128.2777,85.54865703125,128.00209999999998L86.01245703125,127.8868C86.14285703125,127.8517,86.26785703125,127.8218,86.39825703125,127.7867C86.42435703125,127.4664,86.43475703125,127.1357,86.43475703125,126.7951L86.43475703125,119.17935C86.43475703125,116.80617,85.88745703125,115.01371,84.79295703125,113.80676L84.79255703125,113.80762Z" fill="url(#master_svg7_0_521)" fill-opacity="1"/></g><g><path d="M108.34775703125,126.7315853515625C102.70455703125,125.0868723515625,91.64255703124999,131.1327053515625,83.62185703125,133.2258953515625C82.44305703124999,133.5295953515625,81.33947703125,133.7536353515625,80.31587703125,133.8567653515625C79.94153703125,133.89396535156249,79.57670703125,133.9129753515625,79.22700703125,133.9129753515625C79.51186703125,133.8595953515625,79.79888703125,133.7544453515625,80.06861703125,133.6549653515625C80.48878703125,133.5000753515625,80.89683703125,133.3043453515625,81.27204703125,133.0693853515625C81.43198703125,132.9690953515625,81.58673703125,132.8607153515625,81.73197703125,132.7426353515625C81.76958703125,132.7123053515625,81.81410703125,132.6536653515625,81.85862703125,132.6330353515625C81.37405703125,132.8667853515625,80.90461703125,133.0443153515625,80.46025703125,133.1749353515625C79.81617703124999,133.3617753515625,79.22181703125,133.4551853515625,78.67240703125,133.4737953515625C77.92847703125,133.51099535156249,77.27921703125,133.4175753515625,76.73456703125,133.2776553515625C75.84409703125,133.0730253515625,74.98907703125,132.6484053515625,74.42626703125,131.9560653515625C73.86432803125,131.2649453515625,73.52240603125,130.3635253515625,73.32097103125,129.5239853515625C73.15973603125,128.8530753515625,73.08149633125,128.1659953515625,73.05383143125,127.4793253515625L73.05383143125,127.4514153515625C73.04864421125,127.3624453515625,73.04864421125,127.2690353515625,73.04864421125,127.1756153515625C73.04345703125,127.0963553515625,73.04345703125,127.0122353515625,73.04345703125,126.9281253515625L73.04345703125,126.4937953515625C73.04864421125,126.5079453515625,73.04864421125,126.5216953515625,73.05339912125,126.5358453515625C73.46275403125,128.3067353515625,74.52655703125,129.2829653515625,76.04466703125,129.7269953515625C76.60401703125,129.8859253515625,77.22820703125,129.9744953515625,77.89735703125,130.0027953515625C78.25699703125,130.0214053515625,78.63133703125,130.0169553515625,79.02124703125,130.0027953515625C79.71545703125,129.9700453515625,80.45981703125,129.8952253515625,81.23875703125,129.7787553515625C81.41339703125,129.7553053515625,81.58846703125,129.7273953515625,81.76309703125,129.6994953515625C82.00775703125,129.6525853515625,82.26236703125,129.6105253515625,82.52215703125,129.5591653515625C83.40615703125,129.3957853515625,84.32515703125,129.1899453515625,85.27395703125,128.9610553515625C85.42395703125,128.9238553515625,85.57355703125,128.8862453515625,85.72355703125,128.8490353515625C86.14275703125,128.7463153515625,86.56775703125,128.6387453515625,86.99695703125,128.5267253515625C94.62815703125,126.5548553515625,103.46275703124999,123.6629653515625,108.34695703125,126.7323853515625L108.34775703125,126.7315853515625Z" fill="url(#master_svg8_0_521)" fill-opacity="1"/></g><g><path d="M107.130543359375,126.8163916484375C102.479843359375,125.2883546484375,91.304443359375,132.6957246484375,91.304443359375,132.6957246484375C91.304443359375,132.6957246484375,102.271543359375,126.8163916484375,107.130543359375,126.8163916484375Z" fill="url(#master_svg9_0_525)" fill-opacity="1"/><path d="M107.130543359375,126.8163916484375C102.479843359375,125.2883546484375,91.304443359375,132.6957246484375,91.304443359375,132.6957246484375C91.304443359375,132.6957246484375,102.271543359375,126.8163916484375,107.130543359375,126.8163916484375Z" fill="url(#master_svga_0_526)" fill-opacity="1"/></g><g><path d="M67.6409927734375,120.90824C67.9980927734375,120.11634,68.1738927734375,119.25416,68.1738927734375,118.31647L68.1738927734375,117.78493C68.1738927734375,116.72228,67.9020927734375,115.75465,67.3580927734375,114.87728C66.8195927734375,113.99991,66.0411927734375,113.30304,65.0338927734375,112.781911C64.0266627734375,112.260782,62.859272773437496,112,61.5262327734375,112C60.1931927734375,112,58.9565927734375,112.250802,57.9387027734375,112.751971C56.9203427734375,113.25314,56.1368627734375,113.94003,55.5928447734375,114.8174C55.0492927734375,115.68956,54.7825927734375,116.69234,54.7825927734375,117.8153L54.7825927734375,118.56727L58.9995027734375,118.56727L58.9995027734375,118.0661C58.9995027734375,117.25382,59.2126827734375,116.61727,59.6339527734375,116.16123C60.0552327734375,115.69998,60.6306227734375,115.46957,61.361042773437504,115.46957C62.0914727734375,115.46957,62.6723927734375,115.69,63.104282773437504,116.12608C63.5361727734375,116.56737,63.7544227734375,117.15879,63.7544227734375,117.91076L63.7544227734375,118.34685C63.7544227734375,119.30449,63.333152773437504,120.31681,62.4910627734375,121.37989999999999L54.8785679734375,130.6643L54.8785679734375,133.913L68.1738927734375,133.913L68.1738927734375,130.3185L60.3639227734375,130.3185L66.07859277343749,123.3503C66.76609277343749,122.5133,67.2883927734375,121.70099,67.6404927734375,120.90867L67.6409927734375,120.90824Z" fill="url(#master_svgb_0_521)" fill-opacity="1"/></g><g><rect x="69.391357421875" y="130.2608642578125" width="3.6521739959716797" height="3.6521739959716797" rx="1.2173913717269897" fill="#D8D8D8" fill-opacity="1"/><rect x="69.391357421875" y="130.2608642578125" width="3.6521739959716797" height="3.6521739959716797" rx="1.2173913717269897" fill="url(#master_svgc_0_531)" fill-opacity="1"/></g></g><g><g style="opacity:0.1318591833114624;"><path d="M116.2802515625,103.3043599609375L127.6899515625,114.7835599609375L123.2844515625,119.21585996093751L111.8783015625,107.7366599609375L108.8446645625,104.68455996093749C107.9854885625,103.80955996093749,108.0243815625,102.9201599609375,109.0285215625,101.9099599609375L122.6303515625,88.2253399609375C124.9780515625,86.3328989609375,127.9728515625,86.8095669609375,130.3240515625,89.1751199609375L138.4314515625,97.33185996093749L134.0259515625,101.7641599609375L126.6822515625,95.0872099609375C125.6710515625,94.0698499609375,125.49075156250001,94.0378299609375,124.6138515625,94.9164699609375L116.2767115625,103.3043599609375L116.2767115625,103.3043599609375L116.2802515625,103.3043599609375Z" fill-rule="evenodd" fill="#FFFFFF" fill-opacity="1"/></g><g style="opacity:0.1318591833114624;"><path d="M130.0125598776245,72.9412841796875L132.9967198776245,75.7995341796875L129.9807498776245,78.6112741796875L129.9806898776245,78.6112041796875L129.9806698776245,78.6112241796875L126.9965998776245,75.7530341796875L130.0125598776245,72.9412841796875ZM133.7584198776245,82.2296141796875L129.9417898776245,85.7907841796875L126.16212987762451,82.1706041796875L129.9806698776245,78.6112241796875L129.98072987762453,78.6112841796875L129.9807498776245,78.6112741796875L133.7584198776245,82.2296141796875ZM133.7584198776245,82.2296141796875L133.7603198776245,82.2278441796875L133.7603198776245,82.2314241796875L133.7584198776245,82.2296141796875ZM124.00191987762452,74.96606417968749L126.72440987762451,77.5524441796875L123.99484987762452,80.1173641796875L121.27235687762452,77.5309841796875L124.00191987762452,74.96606417968749ZM131.5222198776245,88.9816841796875L142.93191987762452,100.5255841796875L142.9390198776245,100.5255841796875L134.6018198776245,108.9608841796875C133.7250198776245,109.8444841796875,132.83751987762452,109.81228417968751,131.8263198776245,108.78918417968751L125.18980987762451,102.07458417968749L120.78431987762451,106.5318841796875L128.89168987762451,114.7345841796875C131.2429198776245,117.1134841796875,134.2377198776245,117.5928841796875,136.5854198776245,115.6897841796875L150.1872198776245,101.9278841796875C151.19131987762452,100.9119841796875,151.2302198776245,100.0176841796875,150.37111987762452,99.1376841796875L147.3374198776245,96.0682841796875L135.9277198776245,84.5243841796875L131.5222198776245,88.9816841796875Z" fill-rule="evenodd" fill="#FFFFFF" fill-opacity="1"/></g></g></g><g><g><path d="M36.0021016796875,19.4792704640625L36.0021016796875,68.0029494140625C36.0021016796875,74.2113494140625,38.5325516796875,79.8569494140625,42.6089216796875,83.9521494140625C46.6853216796875,88.0473494140625,52.3077216796875,90.5887494140625,58.4893216796875,90.5887494140625L98.0144216796875,90.5887494140625L89.7879216796875,80.37594941406249L62.1449216796875,80.37594941406249C58.1488216796875,80.37594941406249,54.5212216796875,78.7403494140625,51.8936216796875,76.1014494140625C49.2660216796875,73.46244941406249,47.6375216796875,69.8190494140625,47.6375216796875,65.8056494140625L47.6375216796875,34.0484494140625C47.6375216796875,30.035149414062502,49.2660216796875,26.3916794140625,51.8936216796875,23.7527294140625C54.5212216796875,21.1137694140625,58.1488216796875,19.4781494140625,62.1449216796875,19.4781494140625L107.1293216796875,19.4781494140625L107.1293216796875,38.9205494140625L69.6827216796875,38.9205494140625C68.5854216796875,38.9205494140625,67.5875216796875,39.371249414062504,66.8642216796875,40.0976494140625C66.1409216796875,40.824149414062504,65.69222167968749,41.8263494140625,65.69222167968749,42.928349414062495L65.69222167968749,58.3966494140625C65.69222167968749,59.4986494140625,66.1409216796875,60.5008494140625,66.8642216796875,61.2272494140625C67.5875216796875,61.9537494140625,68.5854216796875,62.4043494140625,69.6827216796875,62.4043494140625L96.5767216796875,62.4043494140625L102.7795216796875,70.7820494140625L102.7795216796875,62.4043494140625L107.1293216796875,62.4043494140625L107.1293216796875,83.9577494140625L94.40792167968749,66.7742494140625L69.6838216796875,66.7742494140625C67.3855216796875,66.7742494140625,65.2993216796875,65.8336494140625,63.7891216796875,64.3180494140625C62.278821679687496,62.8001494140625,61.3423216796875,60.7059494140625,61.3423216796875,58.3977494140625L61.3423216796875,42.9294494140625C61.3423216796875,40.621249414062504,62.278821679687496,38.525949414062495,63.7891216796875,37.0091494140625C65.2993216796875,35.4923494140625,67.3855216796875,34.5518494140625,69.6838216796875,34.5518494140625L102.7795216796875,34.5518494140625L102.7795216796875,23.8468894140625L62.1460216796875,23.8468894140625C59.3510216796875,23.8468894140625,56.811621679687505,24.9926094140625,54.971021679687496,26.8412294140625C53.1304216796875,28.6898394140625,51.9896216796875,31.2391494140625,51.9896216796875,34.0473494140625L51.9896216796875,65.8045494140625C51.9896216796875,68.6116494140625,53.1304216796875,71.1609494140625,54.971021679687496,73.0106494140625C56.8105216796875,74.8581494140625,59.3499216796875,76.0050494140625,62.1460216796875,76.0050494140625L91.86512167968749,76.0050494140625L107.1305216796875,94.9564494140625L58.4904216796875,94.9564494140625C51.107821679687504,94.9564494140625,44.3982216796875,91.9239494140625,39.5349116796875,87.0395494140625C34.6715716796875,82.15514941406249,31.6522216796875,75.4164494140625,31.6522216796875,68.00184941406249L31.6522216796875,19.4781494140625L36.0021016796875,19.4781494140625L36.0021016796875,19.4792704640625Z" fill-rule="evenodd" fill="#FFFFFF" fill-opacity="1"/></g><g><path d="M76.087076328125,53.565011796875C77.092266328125,53.565011796875,77.913156328125,52.745421796875,77.913156328125,51.738401796875C77.913156328125,50.733495796875,77.093326328125,49.912841796875,76.087076328125,49.912841796875C75.080819328125,49.912841796875,74.260986328125,50.732436796875,74.260986328125,51.738401796875C74.262045548125,52.744361796875,75.081878328125,53.565011796875,76.087076328125,53.565011796875Z" fill-rule="evenodd" fill="#FFFFFF" fill-opacity="1"/></g><g><path d="M84.6086827734375,53.565011796875C85.6149327734375,53.565011796875,86.4347627734375,52.745421796875,86.4347627734375,51.738401796875C86.4347627734375,50.733495796875,85.6149327734375,49.912841796875,84.6086827734375,49.912841796875C83.6034847734375,49.912841796875,82.7825927734375,50.732436796875,82.7825927734375,51.738401796875C82.7836519934375,52.744361796875,83.6034847734375,53.565011796875,84.6086827734375,53.565011796875Z" fill-rule="evenodd" fill="#FFFFFF" fill-opacity="1"/></g><g><path d="M94.3484705859375,53.565011796875C95.3539505859375,53.565011796875,96.1740205859375,52.745421796875,96.1740205859375,51.738401796875C96.1740205859375,50.733495796875,95.3539505859375,49.912841796875,94.3484705859375,49.912841796875C93.3419205859375,49.912841796875,92.5218505859375,50.732436796875,92.5218505859375,51.738401796875C92.52185058593747,52.744361796875,93.3419205859375,53.565011796875,94.3484705859375,53.565011796875Z" fill-rule="evenodd" fill="#FFFFFF" fill-opacity="1"/></g></g></g><g><path d="M193.9,17.96Q192.94,15.62,191.8,13.82L199.36,13.82Q199.9,14.78,200.41,15.8Q200.92000000000002,16.82,201.4,17.96L216.76,17.96L216.76,23.6L191.56,23.6Q190.78,26.3,189.85,29.09Q188.92000000000002,31.88,187.9,34.52L207.28,34.52Q206.56,32.3,205.72,30.05Q204.88,27.8,204.04,25.7L210.34,25.7Q210.94,26.96,211.63,28.64Q212.32,30.32,213.01,32.21Q213.7,34.1,214.36,36.11Q215.02,38.12,215.56,39.98L179.2,39.98Q180.1,37.94,180.94,35.78Q181.78,33.620000000000005,182.5,31.49Q183.22,29.36,183.82,27.35Q184.42000000000002,25.34,184.84,23.6L177.82,23.6L177.82,17.96L193.9,17.96ZM205.9,68.18L205.9,42.38L212.02,42.38L212.02,62.36L217.18,62.36L217.18,68.18L205.9,68.18ZM177.88,68.18Q180.1,62.3,181.09,55.88Q182.07999999999998,49.46,182.38,42.38L188.56,42.38Q188.26,49.64,187.42000000000002,56.39Q186.57999999999998,63.14,185.14,68.18L177.88,68.18ZM163.3,68.18Q165.58,62.18,167.17,55.94Q168.76,49.7,169.78,43.94L176.2,43.94Q175.06,50.66,173.74,56.57Q172.42,62.48,170.56,68.18L163.3,68.18ZM193.96,42.38L200.07999999999998,42.38L200.07999999999998,68.18L193.96,68.18L193.96,42.38ZM170.08,28.7Q171.64,31.22,173.32,34.25Q175,37.28,176.74,41.06L169.72,41.06Q168.4,37.82,166.75,34.7Q165.1,31.58,163.36,28.7L170.08,28.7ZM170.08,14.36Q171.82,16.939999999999998,173.47,19.94Q175.12,22.94,177.04,26.78L170.08,26.78Q168.7,23.72,167.02,20.48Q165.34,17.240000000000002,163.42,14.36L170.08,14.36ZM275.32,14.9L275.32,34.64L246.22,34.64L246.22,14.9L275.32,14.9ZM257.5,62.96L257.5,55.64L246.28,55.64L246.28,50.48L257.5,50.48L257.5,43.76L245.5,43.76L245.5,38.6L276.15999999999997,38.6L276.15999999999997,43.76L263.98,43.76L263.98,50.48L275.38,50.48L275.38,55.64L263.98,55.64L263.98,62.96L277.18,62.96L277.18,68.18L244.54000000000002,68.18L244.54000000000002,62.96L257.5,62.96ZM230.98000000000002,32.96L223.06,32.96L223.06,27.62L230.98000000000002,27.62L230.98000000000002,21.02L223.66,21.56L223.66,16.22L243.16,14.66L243.16,20.12L236.62,20.6L236.62,27.62L243.82,27.62L243.82,32.96L236.62,32.96L236.62,68.18L230.98000000000002,68.18L230.98000000000002,32.96ZM252.22,29.54L269.26,29.54L269.26,19.94L252.22,19.94L252.22,29.54ZM222.94,66.8Q223.9,57.44,224.32,49.46Q224.74,41.48,224.8,35.12L229.66,35.12Q229.6,41.84,229.3,49.52Q229,57.2,228.34,66.8L222.94,66.8ZM238.54000000000002,64.58Q238.48000000000002,56.24,238.24,48.83Q238,41.42,237.64,35.06L242.38,35.06Q242.86,41.96,243.13,49.25Q243.4,56.54,243.64,64.58L238.54000000000002,64.58ZM306.46000000000004,49.4L283.54,49.4L283.54,43.46L306.46000000000004,43.46L306.46000000000004,20.9L285.22,20.9L285.22,15.08L334.84000000000003,15.08L334.84000000000003,20.9L313.36,20.9L313.36,43.46L335.98,43.46L335.98,49.4L313.36,49.4L313.36,68.24L306.46000000000004,68.24L306.46000000000004,49.4ZM292.65999999999997,40.34Q292.24,38.54,291.7,36.5Q291.15999999999997,34.46,290.59000000000003,32.36Q290.02,30.26,289.39,28.19Q288.76,26.12,288.15999999999997,24.2L294.94,24.2Q296.32,28.04,297.52,32.18Q298.72,36.32,299.62,40.34L292.65999999999997,40.34ZM319.36,40.34Q321.03999999999996,35.96,322.27,31.97Q323.5,27.98,324.46000000000004,24.2L331.3,24.2Q330.28,28.34,328.99,32.629999999999995Q327.7,36.92,326.32,40.34L319.36,40.34ZM393.22,39.74L393.22,68.18L346.84000000000003,68.18L346.84000000000003,39.74L393.22,39.74ZM353.91999999999996,62.3L386.14,62.3L386.14,45.68L353.91999999999996,45.68L353.91999999999996,62.3ZM344.2,35.12Q346.18,32.36,348.15999999999997,29.39Q350.14,26.42,351.88,23.57Q353.62,20.72,355.06,18.2Q356.5,15.68,357.52,13.76L365.44,13.76Q363.1,18.38,360.90999999999997,22.16Q358.72,25.94,356.5,29.18L384.94,29.18Q383.2,25.76,381.31,22.34Q379.41999999999996,18.92,377.68,15.92L385.24,15.92Q386.38,17.72,387.64,19.94Q388.9,22.16,390.25,24.62Q391.6,27.08,392.98,29.75Q394.36,32.42,395.74,35.12L344.2,35.12ZM405.03999999999996,59.84Q409.36,55.7,413.26,51.8Q417.16,47.9,420.16,44.48Q423.22,41,425.23,37.43Q427.24,33.86,427.24,30.86Q427.24,26.9,424.81,24.8Q422.38,22.7,418.24,22.7Q415.36,22.7,412.12,23.93Q408.88,25.16,405.88,27.2L405.64,21.2Q408.7,19.28,412.41999999999996,17.93Q416.14,16.58,419.62,16.58Q423.04,16.58,425.74,17.54Q428.44,18.5,430.33,20.3Q432.22,22.1,433.24,24.62Q434.26,27.14,434.26,30.2Q434.26,32.480000000000004,433.54,34.76Q432.82,37.04,431.59,39.29Q430.36,41.54,428.8,43.64Q427.24,45.74,425.62,47.6Q424.48,48.86,423.04,50.36Q421.6,51.86,420.04,53.45Q418.48,55.04,416.86,56.63Q415.24,58.22,413.74,59.6L435.04,59.6L435.04,65.47999999999999L405.03999999999996,65.47999999999999L405.03999999999996,59.84ZM444.28,55.82L451.84,55.82L451.84,65.47999999999999L444.28,65.47999999999999L444.28,55.82ZM476.32,66.68Q472.3,66.68,469.15,64.91Q466,63.14,463.84,59.9Q461.68,56.66,460.54,52.04Q459.4,47.42,459.4,41.66Q459.4,35.9,460.54,31.25Q461.68,26.6,463.84,23.33Q466,20.06,469.15,18.32Q472.3,16.58,476.32,16.58Q480.34,16.58,483.49,18.32Q486.64,20.06,488.8,23.33Q490.96,26.6,492.1,31.25Q493.24,35.9,493.24,41.66Q493.24,47.42,492.1,52.04Q490.96,56.66,488.8,59.93Q486.64,63.2,483.49,64.94Q480.34,66.68,476.32,66.68ZM476.32,60.56Q478.42,60.56,480.25,59.42Q482.08,58.28,483.4,55.94Q484.72,53.6,485.47,50.03Q486.22,46.46,486.22,41.66Q486.22,36.8,485.47,33.230000000000004Q484.72,29.66,483.4,27.32Q482.08,24.98,480.25,23.84Q478.42,22.7,476.32,22.7Q474.16,22.7,472.36,23.84Q470.56,24.98,469.24,27.32Q467.92,29.66,467.17,33.230000000000004Q466.42,36.8,466.42,41.66Q466.42,46.46,467.17,50.03Q467.92,53.6,469.24,55.94Q470.56,58.28,472.36,59.42Q474.16,60.56,476.32,60.56Z" fill="#333333" fill-opacity="1"/></g><g><path d="M179.577,98.388Q179.799,96.723,179.91,94.873Q179.984,93.615,180.0025,92.4495Q180.02100000000002,91.284,180.058,90.174L168.588,90.174L168.588,87.769L196.375,87.769L196.375,90.174L182.648,90.174L182.5,95.05799999999999Q182.463,95.90899999999999,182.389,96.7415Q182.315,97.574,182.24099999999999,98.388L198.632,98.388L198.632,100.719L181.90800000000002,100.719Q180.983,105.751,178.689,109.525Q175.285,115.186,167.367,120.255L165.776,117.887Q173.176,113.41,176.358,108.119Q178.282,104.863,179.17,100.719L166.368,100.719L166.368,98.388L179.577,98.388ZM198.114,110.45Q198.077,111.26400000000001,197.9475,112.42949999999999Q197.81799999999998,113.595,197.707,114.446Q197.522,115.63,197.3185,116.37Q197.115,117.11,196.708,117.554Q196.301,117.99799999999999,195.598,118.18299999999999Q194.895,118.368,193.674,118.44200000000001Q193.008,118.479,192.157,118.4975Q191.306,118.51599999999999,190.3625,118.51599999999999Q189.419,118.51599999999999,188.4755,118.4975Q187.532,118.479,186.718,118.405Q185.571,118.294,184.905,118.035Q184.239,117.77600000000001,183.906,117.2765Q183.573,116.777,183.499,116Q183.425,115.223,183.425,114.15L183.425,102.34700000000001L185.867,102.34700000000001L185.867,113.743Q185.867,114.40899999999999,185.904,114.8715Q185.941,115.334,186.126,115.6115Q186.311,115.88900000000001,186.6625,116.0185Q187.014,116.148,187.68,116.185Q188.161,116.22200000000001,188.938,116.2405Q189.715,116.259,190.5475,116.2775Q191.38,116.29599999999999,192.2125,116.2775Q193.04500000000002,116.259,193.674,116.185Q194.192,116.148,194.5065,116.0555Q194.821,115.963,195.006,115.7595Q195.191,115.556,195.2835,115.186Q195.376,114.816,195.45,114.261Q195.487,113.89099999999999,195.5425,113.299Q195.598,112.707,195.635,112.09649999999999Q195.672,111.48599999999999,195.709,110.894Q195.746,110.30199999999999,195.78300000000002,109.895L198.114,110.45ZM220.499,97.241Q220.425,96.168,220.3325,95.021Q220.24,93.874,220.166,92.653Q220.018,90.43299999999999,219.94400000000002,88.62Q219.87,86.807,219.796,85.401L222.275,85.401Q222.312,88.25,222.608,92.764Q222.68200000000002,93.911,222.756,94.9655Q222.82999999999998,96.02,222.904,97.019L235.817,95.83500000000001L236.002,98.314L223.126,99.461Q223.829,105.455,224.99450000000002,109.1735Q226.16,112.892,227.418,114.668Q228.269,115.77799999999999,228.935,116.185Q229.601,116.592,230.304,116.592Q230.748,116.592,231.118,116.333Q231.488,116.074,231.858,115.35249999999999Q232.228,114.631,232.635,113.336Q233.042,112.041,233.56,110.006L235.70600000000002,111.26400000000001Q235.003,113.81700000000001,234.39249999999998,115.4265Q233.78199999999998,117.036,233.1345,117.9425Q232.487,118.84899999999999,231.8025,119.2005Q231.118,119.55199999999999,230.304,119.55199999999999Q229.00900000000001,119.55199999999999,227.862,118.7935Q226.715,118.035,225.383,116.148Q223.71800000000002,113.81700000000001,222.571,109.747Q221.424,105.67699999999999,220.758,99.68299999999999L212.248,100.46000000000001L212.026,98.018L220.499,97.241ZM202.258,104.271Q203.59,102.384,204.9405,100.1455Q206.291,97.907,207.549,95.465Q208.80700000000002,92.986,209.8245,90.3775Q210.84199999999998,87.769,211.619,85.327L214.135,86.141Q213.358,88.361,212.507,90.4145Q211.656,92.468,210.731,94.466L210.731,119.848L208.326,119.848L208.326,99.239Q206.365,102.754,204.32999999999998,105.788L202.258,104.271ZM226.937,86.844Q227.566,87.288,228.38,87.9725Q229.19400000000002,88.657,230.156,89.508Q232.228,91.284,233.227,92.394L231.70999999999998,94.207Q231.192,93.615,230.43349999999998,92.8935Q229.675,92.172,228.713,91.247Q226.752,89.397,225.531,88.509L226.937,86.844ZM253.725,88.176L253.725,90.618L248.212,90.618Q247.25,94.91,245.548,98.943L252.023,98.943L252.023,116.74000000000001L243.03199999999998,116.74000000000001L243.03199999999998,104.197Q241.848,106.269,240.59,108.193L238.62900000000002,106.676Q241.108,103.013,242.9395,98.8875Q244.77100000000002,94.762,245.733,90.618L240.10899999999998,90.618L240.10899999999998,88.176L253.725,88.176ZM256.611,91.654L258.979,91.839L258.017,101.644L265.454,101.644L266.601,89.91499999999999L254.798,89.91499999999999L254.798,87.547L269.228,87.547L267.896,101.644L271.781,101.644Q271.744,104.086,271.707,105.9545Q271.67,107.82300000000001,271.596,109.377Q271.522,110.931,271.411,112.3185Q271.3,113.706,271.18899999999996,115.149Q271.115,116.148,270.911,116.8695Q270.70799999999997,117.59100000000001,270.20799999999997,118.09049999999999Q269.709,118.59,268.877,118.886Q268.044,119.182,266.675,119.293Q265.158,119.441,263.678,119.45949999999999Q262.198,119.47800000000001,261.421,119.441L260.977,116.74000000000001Q261.93899999999996,116.814,263.345,116.8695Q264.751,116.925,266.046,116.851Q266.897,116.814,267.415,116.703Q267.933,116.592,268.229,116.31450000000001Q268.525,116.037,268.655,115.5375Q268.784,115.038,268.858,114.187Q269.08,111.967,269.173,109.5805Q269.265,107.194,269.265,104.086L255.538,104.086L256.611,91.654ZM245.178,114.40899999999999L249.84,114.40899999999999L249.84,101.311L245.178,101.311L245.178,114.40899999999999ZM267.156,109.229L267.156,111.708L252.94799999999998,111.708L252.94799999999998,109.229L267.156,109.229ZM295.202,84.624Q295.831,85.734,296.46000000000004,87.1215Q297.089,88.509,297.60699999999997,89.91499999999999L309.928,89.91499999999999L309.928,92.246L283.214,92.246L283.214,100.645Q283.214,104.123,282.955,106.8425Q282.696,109.562,282.252,111.59700000000001Q281.808,113.632,280.994,115.79650000000001Q280.18,117.961,278.885,120.292L276.702,119.108Q277.997,116.851,278.81100000000004,114.816Q279.625,112.781,280.032,110.894Q280.43899999999996,109.007,280.679,106.491Q280.92,103.975,280.92,100.756L280.92,89.91499999999999L295.017,89.91499999999999Q294.61,88.842,294.055,87.695Q293.5,86.548,292.945,85.586L295.202,84.624ZM299.087,115.482Q299.975,113.262,300.863,110.8385Q301.751,108.41499999999999,302.547,105.9175Q303.342,103.42,304.06399999999996,100.941Q304.78499999999997,98.462,305.377,96.094L307.745,96.797Q306.339,101.533,304.822,106.1395Q303.305,110.746,301.529,115.482L310.33500000000004,115.482L310.33500000000004,117.813L283.251,117.813L283.251,115.482L299.087,115.482ZM287.358,96.42699999999999Q287.98699999999997,97.72200000000001,288.653,99.5535Q289.319,101.385,290.05899999999997,103.753Q290.799,106.121,291.354,108.082Q291.909,110.043,292.20500000000004,111.412L289.874,112.152Q289.578,110.709,289.078,108.8035Q288.579,106.898,287.839,104.53Q287.099,102.125,286.47,100.3305Q285.841,98.536,285.249,97.20400000000001L287.358,96.42699999999999ZM296.01599999999996,95.095Q296.46000000000004,96.35300000000001,296.885,98.129Q297.31100000000004,99.905,297.79200000000003,102.162Q298.754,106.713,298.976,109.488L296.608,109.969Q296.497,108.563,296.219,106.75Q295.942,104.937,295.461,102.68Q294.536,98.24,293.685,95.65L296.01599999999996,95.095ZM335.93899999999996,116.703Q336.753,116.777,337.863,116.83250000000001Q338.973,116.888,339.824,116.814Q341.119,116.777,341.50800000000004,116.3885Q341.89599999999996,116,341.89599999999996,114.705L341.89599999999996,108.674L332.054,108.674L332.054,119.441L329.68600000000004,119.441L329.68600000000004,108.674L319.807,108.674Q319.733,110.487,319.49199999999996,112.041Q319.252,113.595,318.78999999999996,115.0195Q318.327,116.444,317.605,117.7945Q316.884,119.14500000000001,315.774,120.477L313.517,119.108Q314.775,117.47999999999999,315.552,116.0185Q316.329,114.557,316.773,112.96600000000001Q317.217,111.375,317.365,109.488Q317.51300000000003,107.601,317.51300000000003,105.15899999999999L317.51300000000003,87.621L344.264,87.621L344.264,115.001Q344.264,116.074,344.116,116.814Q343.96799999999996,117.554,343.579,118.0535Q343.19100000000003,118.553,342.525,118.84899999999999Q341.85900000000004,119.14500000000001,340.823,119.256Q340.416,119.33,339.842,119.3485Q339.269,119.36699999999999,338.659,119.404Q338.048,119.441,337.456,119.441Q336.86400000000003,119.441,336.41999999999996,119.441L335.93899999999996,116.703ZM332.054,90.026L332.054,96.982L341.89599999999996,96.982L341.89599999999996,90.026L332.054,90.026ZM319.881,96.982L329.68600000000004,96.982L329.68600000000004,90.026L319.881,90.026L319.881,96.982ZM332.054,106.158L341.89599999999996,106.158L341.89599999999996,99.424L332.054,99.424L332.054,106.158ZM319.881,106.158L329.68600000000004,106.158L329.68600000000004,99.424L319.881,99.424L319.881,105.714L319.881,106.158ZM362.32,98.166Q363.28200000000004,96.797,364.16999999999996,95.2245Q365.058,93.652,365.872,91.876Q367.5,88.324,368.499,85.068L370.719,85.697Q370.312,86.992,369.85,88.25Q369.387,89.508,368.832,90.803L382.707,90.803Q382.66999999999996,97.167,382.53999999999996,102.717Q382.411,108.267,382.115,113.37299999999999Q382.004,115.001,381.801,116.0185Q381.597,117.036,381.098,117.6465Q380.598,118.257,379.72900000000004,118.51599999999999Q378.85900000000004,118.775,377.453,118.886Q376.861,118.96000000000001,376.121,118.997Q375.381,119.03399999999999,374.65999999999997,119.05250000000001Q373.938,119.071,373.253,119.071Q372.56899999999996,119.071,372.08799999999997,119.071L371.57,116.333Q372.125,116.37,372.791,116.407Q373.457,116.444,374.14099999999996,116.444Q374.826,116.444,375.49199999999996,116.444Q376.158,116.444,376.676,116.444Q377.675,116.407,378.249,116.31450000000001Q378.822,116.22200000000001,379.1,115.79650000000001Q379.377,115.37100000000001,379.488,114.5385Q379.599,113.706,379.673,112.189Q379.784,109.969,379.895,107.5455Q380.006,105.122,380.08000000000004,102.6615Q380.154,100.201,380.173,97.759Q380.19100000000003,95.31700000000001,380.19100000000003,93.097L367.796,93.097Q366.945,94.873,366.094,96.4455Q365.243,98.018,364.281,99.35L362.32,98.166ZM356.622,92.801L356.622,85.142L358.842,85.142L358.842,92.801L363.467,92.801L363.467,95.021L358.842,95.021L358.842,98.425Q359.73,99.16499999999999,360.6,99.94200000000001Q361.469,100.719,362.227,101.4405Q362.986,102.162,363.596,102.791Q364.207,103.42,364.577,103.901L363.06,105.67699999999999Q362.653,105.196,362.098,104.56700000000001Q361.543,103.938,360.803,103.161Q359.619,101.94,358.842,101.2L358.842,120.181L356.622,120.181L356.622,101.274Q356.363,101.977,356.10400000000004,102.643Q355.845,103.309,355.549,103.975Q354.624,106.084,353.717,107.89699999999999Q352.81100000000004,109.71000000000001,351.849,111.26400000000001L349.851,109.821Q350.924,108.045,352.108,105.8805Q353.29200000000003,103.71600000000001,354.254,101.57Q354.994,99.868,355.586,98.24Q356.178,96.612,356.58500000000004,95.021L351.257,95.021L351.257,92.801L356.622,92.801ZM374.049,100.164Q374.382,100.756,374.844,101.681Q375.307,102.606,375.825,103.6975Q376.34299999999996,104.789,376.861,105.9545Q377.379,107.12,377.823,108.2115Q378.267,109.303,378.618,110.191Q378.97,111.07900000000001,379.118,111.59700000000001L377.046,112.707Q376.898,112.263,376.73199999999997,111.68950000000001Q376.565,111.116,376.30600000000004,110.487Q374.826,110.709,373.217,110.894Q371.60699999999997,111.07900000000001,369.97900000000004,111.227Q368.351,111.375,366.723,111.48599999999999Q365.095,111.59700000000001,363.615,111.634L363.134,109.34Q363.68899999999996,109.34,364.003,108.9515Q364.318,108.563,364.61400000000003,108.008Q365.206,106.97200000000001,365.85400000000004,105.5475Q366.501,104.123,367.241,102.236Q367.981,100.349,368.591,98.7765Q369.202,97.20400000000001,369.60900000000004,95.83500000000001L371.829,96.538Q371.385,97.87,370.756,99.498Q370.127,101.126,369.313,103.05Q367.685,106.898,366.538,109.044Q368.647,108.97,371.034,108.7295Q373.41999999999996,108.489,375.418,108.193Q375.01099999999997,107.194,374.58500000000004,106.195Q374.15999999999997,105.196,373.73400000000004,104.2525Q373.30899999999997,103.309,372.902,102.495Q372.495,101.681,372.16200000000003,101.05199999999999L374.049,100.164ZM407.349,104.16L407.349,100.83L399.83799999999997,100.83L399.83799999999997,98.869L407.349,98.869L407.349,95.539L398.321,95.539L398.321,93.615L407.349,93.615L407.349,90.322L399.83799999999997,90.322L399.83799999999997,88.435L407.349,88.435L407.349,85.105L409.421,85.105L409.421,88.435L417.598,88.435L417.598,93.615L421.002,93.615L421.002,95.539L417.598,95.539L417.598,100.83L409.421,100.83L409.421,104.16L418.671,104.16L418.671,106.195L409.421,106.195L409.421,109.525L420.077,109.525L420.077,111.56L409.421,111.56L409.421,115.482L407.349,115.482L407.349,111.56L397.692,111.56L397.692,109.525L407.349,109.525L407.349,106.195L399.579,106.195L399.579,104.16L407.349,104.16ZM390.66200000000003,103.235Q391.106,105.011,391.735,106.52799999999999Q392.36400000000003,108.045,393.14099999999996,109.34Q394.73199999999997,105.566,395.546,100.719L388.701,100.719L388.701,98.684Q390.477,96.797,392.068,94.6695Q393.659,92.542,395.21299999999997,90.285L388.03499999999997,90.285L388.03499999999997,88.213L397.877,88.213L397.877,90.322Q396.397,92.542,394.769,94.651Q393.14099999999996,96.76,391.365,98.64699999999999L397.692,98.64699999999999L397.692,100.645Q397.174,103.864,396.43399999999997,106.491Q395.69399999999996,109.118,394.73199999999997,111.26400000000001L394.658,111.412Q395.28700000000003,112.11500000000001,395.971,112.707Q396.656,113.299,397.433,113.81700000000001Q399.875,115.37100000000001,403.057,116.074Q406.23900000000003,116.777,410.235,116.925Q413.121,116.999,415.85900000000004,116.925Q418.597,116.851,421.039,116.592L420.706,119.108Q418.486,119.293,415.637,119.33Q412.788,119.36699999999999,409.53200000000004,119.256Q405.499,119.108,402.169,118.2755Q398.839,117.443,396.13800000000003,115.63Q395.435,115.186,394.80600000000004,114.6495Q394.177,114.113,393.58500000000004,113.48400000000001Q392.65999999999997,115.038,391.43899999999996,116.592Q390.21799999999996,118.146,388.627,119.88499999999999L386.81399999999996,118.294Q388.47900000000004,116.703,389.774,115.038Q391.06899999999996,113.37299999999999,392.031,111.634Q389.848,108.489,388.738,103.975L390.66200000000003,103.235ZM415.563,98.869L415.563,95.539L409.421,95.539L409.421,98.869L415.563,98.869ZM409.421,90.322L409.421,93.615L415.563,93.615L415.563,90.322L409.421,90.322ZM440.242,104.715L440.242,89.804L426.404,89.804L426.404,87.362L456.559,87.362L456.559,89.804L442.721,89.804L442.721,104.715L458.076,104.715L458.076,107.268L442.721,107.268L442.721,119.848L440.242,119.848L440.242,107.268L424.85,107.268L424.85,104.715L440.242,104.715ZM446.495,101.089Q447.198,100.349,448.049,99.313Q448.9,98.277,449.862,96.871Q451.897,93.985,452.859,92.172L454.894,93.467Q454.376,94.429,453.599,95.65Q452.822,96.871,451.786,98.277Q450.787,99.68299999999999,449.954,100.756Q449.122,101.82900000000001,448.419,102.569L446.495,101.089ZM429.993,92.172Q430.696,92.912,431.529,94.0035Q432.361,95.095,433.397,96.501Q435.432,99.276,436.431,101.089L434.47,102.532Q433.508,100.682,431.473,97.907Q430.474,96.501,429.642,95.39099999999999Q428.809,94.281,428.143,93.541L429.993,92.172ZM490.562,104.16L490.562,118.923L466.327,118.923L466.327,104.16L490.562,104.16ZM468.806,116.555L488.083,116.555L488.083,106.52799999999999L468.806,106.52799999999999L468.806,116.555ZM483.939,88.953Q485.974,90.618,489.193,94.059Q490.784,95.761,492.079,97.20400000000001Q493.374,98.64699999999999,494.151,99.646L492.264,101.422Q491.82,100.83,491.265,100.1455Q490.71,99.461,490.044,98.684Q483.273,99.128,476.706,99.387Q470.138,99.646,463.515,99.72L463.145,97.241Q464.255,97.167,464.81,96.9265Q465.365,96.686,465.809,96.35300000000001Q466.993,95.428,468.306,94.133Q469.62,92.838,471.211,91.062Q474.393,87.621,476.206,84.883L478.389,86.215Q477.427,87.51,476.224,88.9715Q475.022,90.43299999999999,473.579,92.024Q472.173,93.615,470.823,94.91Q469.472,96.205,468.214,97.241Q470.989,97.241,473.838,97.167Q476.687,97.093,479.684,96.945Q482.089,96.834,484.18,96.723Q486.27,96.612,488.046,96.42699999999999L487.454,95.798Q485.863,94.096,484.568,92.801Q483.273,91.506,482.2,90.655L483.939,88.953Z" fill="#666666" fill-opacity="1"/></g></g></svg>