<?xml version="1.0" encoding="UTF-8"?>
<svg width="357px" height="357px" viewBox="0 0 357 357" version="1.1" xmlns="http://www.w3.org/2000/svg" xmlns:xlink="http://www.w3.org/1999/xlink">
    <title>画板备份 2</title>
    <defs>
        <rect id="path-1" x="0" y="0" width="357" height="357"></rect>
        <filter x="-45.8%" y="-45.8%" width="191.6%" height="191.6%" filterUnits="objectBoundingBox" id="filter-3">
            <feGaussianBlur stdDeviation="31" in="SourceGraphic"></feGaussianBlur>
        </filter>
        <filter x="-45.8%" y="-45.8%" width="191.6%" height="191.6%" filterUnits="objectBoundingBox" id="filter-4">
            <feGaussianBlur stdDeviation="31" in="SourceGraphic"></feGaussianBlur>
        </filter>
        <linearGradient x1="0%" y1="49.9949619%" x2="100%" y2="49.9949619%" id="linearGradient-5">
            <stop stop-color="#15C1B1" offset="0%"></stop>
            <stop stop-color="#773490" offset="100%"></stop>
        </linearGradient>
        <linearGradient x1="14.5846187%" y1="53.979654%" x2="85.7328076%" y2="46.022746%" id="linearGradient-6">
            <stop stop-color="#FF9535" offset="0%"></stop>
            <stop stop-color="#FFF294" offset="100%"></stop>
        </linearGradient>
        <path d="M102.443478,33.4969787 C102.443478,33.4969787 92.1136435,35.0816179 83.8173913,33.3056719 L83.8173913,27.9391304 C88.1862748,30.5455467 94.6118725,33.2669683 102.443478,33.4969787 Z" id="path-7"></path>
        <linearGradient x1="27.7965011%" y1="62.8159154%" x2="80.8673469%" y2="25.9620291%" id="linearGradient-8">
            <stop stop-color="#FF5F10" offset="0%"></stop>
            <stop stop-color="#FFB744" offset="100%"></stop>
        </linearGradient>
        <linearGradient x1="14.0340018%" y1="50.7467061%" x2="100%" y2="48.5994523%" id="linearGradient-9">
            <stop stop-color="#FF5F10" offset="0%"></stop>
            <stop stop-color="#FFB744" offset="100%"></stop>
        </linearGradient>
        <linearGradient x1="-2.95175484e-14%" y1="49.9997772%" x2="100%" y2="49.9997772%" id="linearGradient-10">
            <stop stop-color="#15C1B1" offset="0%"></stop>
            <stop stop-color="#773490" offset="100%"></stop>
        </linearGradient>
        <linearGradient x1="14.5846187%" y1="55.2983559%" x2="85.7328076%" y2="44.7048394%" id="linearGradient-11">
            <stop stop-color="#FF9535" offset="0%"></stop>
            <stop stop-color="#FFF294" offset="100%"></stop>
        </linearGradient>
        <path d="M133.486957,37.781622 C121.627808,33.8851239 93.1304348,52.773913 93.1304348,52.773913 C93.1304348,52.773913 121.096567,37.781622 133.486957,37.781622 Z" id="path-12"></path>
        <linearGradient x1="36.5682538%" y1="62.8159154%" x2="68.6728395%" y2="25.9620291%" id="linearGradient-13">
            <stop stop-color="#FF5F10" offset="0%"></stop>
            <stop stop-color="#FFB744" offset="100%"></stop>
        </linearGradient>
        <linearGradient x1="14.5846187%" y1="85.8168858%" x2="85.7328076%" y2="14.2047142%" id="linearGradient-14">
            <stop stop-color="#FF9535" offset="0%"></stop>
            <stop stop-color="#FFF294" offset="100%"></stop>
        </linearGradient>
        <rect id="path-15" x="37.2521739" y="46.5652174" width="9.31304348" height="9.31304348" rx="1"></rect>
    </defs>
    <g id="画板备份-2" stroke="none" stroke-width="1" fill="none" fill-rule="evenodd">
        <g id="编组-3">
            <g id="93d5e5c6f13f5b04b196da22dc773f8f59ab093713b60-4AUJ54">
                <mask id="mask-2" fill="white">
                    <use xlink:href="#path-1"></use>
                </mask>
                <use id="蒙版" fill="#FF6400" xlink:href="#path-1"></use>
                <circle id="椭圆形" fill="#FFE918" opacity="0.312593006" filter="url(#filter-3)" mask="url(#mask-2)" cx="-2.5" cy="15.5" r="101.5"></circle>
                <circle id="椭圆形备份-5" fill="#FFC61F" opacity="0.438197545" filter="url(#filter-4)" mask="url(#mask-2)" cx="180.5" cy="346.5" r="101.5"></circle>
                <ellipse id="椭圆形" fill="#FFFFFF" mask="url(#mask-2)" cx="180.052174" cy="357.004348" rx="192.469565" ry="74.5"></ellipse>
                <ellipse id="椭圆形备份-3" fill="#FFFFFF" opacity="0.256463914" mask="url(#mask-2)" cx="291.808696" cy="343.030435" rx="192.469565" ry="79.1608696"></ellipse>
                <ellipse id="椭圆形备份-4" fill="#FFFFFF" opacity="0.337634859" mask="url(#mask-2)" cx="65.1913043" cy="343.030435" rx="192.469565" ry="79.1608696"></ellipse>
                <ellipse id="椭圆形备份" fill="#FFFFFF" opacity="0.337634859" mask="url(#mask-2)" cx="245.243478" cy="352.343478" rx="192.469565" ry="79.1608696"></ellipse>
                <ellipse id="椭圆形备份-2" fill="#FFFFFF" opacity="0.337634859" mask="url(#mask-2)" cx="111.756522" cy="352.343478" rx="192.469565" ry="79.1608696"></ellipse>
                <ellipse id="椭圆形" fill="#FFFFFF" mask="url(#mask-2)" cx="180.052174" cy="352.504348" rx="192.469565" ry="79"></ellipse>
                <g id="2.02" mask="url(#mask-2)">
                    <g transform="translate(139.6957, 285.6)">
                        <g id="路径" fill="none" fill-rule="nonzero">
                            <use fill="url(#linearGradient-5)" xlink:href="#path-7"></use>
                            <use fill="url(#linearGradient-6)" xlink:href="#path-7"></use>
                        </g>
                        <path d="M76.5253847,4.60943593 C73.7343792,1.53279493 69.4408785,0 63.6460332,0 C57.8511878,0 53.8234424,1.5449512 50.9254445,4.64700985 C48.0147916,7.7623299 46.5652174,12.3076691 46.5652174,18.3084452 L46.5652174,31.5864056 C46.6445988,32.0328722 46.7515912,32.4926002 46.9506201,32.9014928 C48.8247124,36.6931434 50.6056178,41.5711224 55.3512476,42.9370449 C56.1887793,43.1790652 57.119498,43.3580938 58.1560586,43.4608696 C57.73039,41.8396654 57.5049006,39.6305399 57.5049006,36.8467545 L57.5049006,19.8147174 C57.5049006,15.8948734 57.9167638,13.1243494 58.7542955,11.5407191 C59.5780218,9.94493262 61.2128194,9.15367006 63.6460332,9.15367006 C66.079247,9.15367006 67.7128941,9.94493262 68.5768863,11.5407191 C69.4270731,13.1243494 69.8527417,15.8948734 69.8527417,19.8147174 L69.8527417,36.8467545 C69.8527417,39.2603263 69.6928283,41.2384827 69.3741521,42.7712776 L70.1323024,42.630928 C70.4912446,42.5668313 70.8639922,42.4905783 71.2493949,42.4143254 C73.3489765,42.0186941 75.634932,41.5081308 78.4535485,40.8052775 L79.6362169,40.5113168 C79.9686986,40.4218025 80.2873749,40.3455495 80.6198566,40.2560352 C80.686583,39.439355 80.7130435,38.596152 80.7130435,37.7275314 L80.7130435,18.3073401 C80.7130435,12.2557287 79.3175407,7.68497182 76.5265352,4.6072257 L76.5253847,4.60943593 Z" id="路径" fill="url(#linearGradient-8)" fill-rule="nonzero"></path>
                        <path d="M136.591304,37.5657072 C122.201107,33.3717014 93.9927937,48.7885657 73.5400855,54.1262038 C70.5341822,54.9006564 67.7200747,55.4719569 65.1098881,55.7349201 C64.1553181,55.8297931 63.2249982,55.8782609 62.3332579,55.8782609 C63.059657,55.7421387 63.7915674,55.4740193 64.4793869,55.2203372 C65.550798,54.8253767 66.5913453,54.3262622 67.5481198,53.7271185 C67.9559615,53.4713738 68.3505759,53.1950046 68.7209402,52.8938859 C68.8168381,52.8165438 68.9303724,52.6670157 69.0439067,52.614423 C67.8082567,53.210473 66.6111863,53.6631823 65.4780478,53.9962691 C63.8356584,54.4726966 62.3200306,54.7109103 60.9190394,54.7583468 C59.0220245,54.8532199 57.3664078,54.6150061 55.9775416,54.2582011 C53.7068556,53.7363995 51.5265561,52.6536097 50.0913944,50.8881467 C48.6584372,49.1257774 47.7865378,46.8271693 47.2728778,44.6863392 C46.8617293,42.9755313 46.6622176,41.2234743 46.591672,39.4724485 L46.591672,39.4012938 C46.5784447,39.1744235 46.5784447,38.9362097 46.5784447,38.697996 C46.5652174,38.4958752 46.5652174,38.2813797 46.5652174,38.0668842 L46.5652174,36.9593449 C46.5784447,36.9954379 46.5784447,37.0304997 46.5905697,37.0665927 C47.6344239,41.5823418 50.3471221,44.0717271 54.2183111,45.2040159 C55.6446546,45.6092886 57.2363394,45.8351276 58.9426607,45.9073136 C59.8597533,45.9547501 60.8143233,45.9434066 61.8085751,45.9073136 C63.5788284,45.8237841 65.4769456,45.6330069 67.4632447,45.3360131 C67.9085637,45.2762019 68.354985,45.2050471 68.800304,45.1338923 C69.4241915,45.0142698 70.0734313,44.9070221 70.7358985,44.7760561 C72.9900504,44.3594398 75.3334865,43.8345446 77.7529796,43.2508693 C78.135469,43.1559963 78.516856,43.0600921 78.8993454,42.965219 C79.9685519,42.703287 81.052088,42.4289803 82.1466468,42.14333 C101.606206,37.1150604 124.134497,29.7407462 136.5891,37.5677697 L136.591304,37.5657072 Z" id="路径" fill="url(#linearGradient-9)" fill-rule="nonzero"></path>
                        <g id="路径" fill="none" fill-rule="nonzero">
                            <use fill="url(#linearGradient-10)" xlink:href="#path-12"></use>
                            <use fill="url(#linearGradient-11)" xlink:href="#path-12"></use>
                        </g>
                        <path d="M32.7888316,22.7159996 C33.6995344,20.6966767 34.1478261,18.4981043 34.1478261,16.1070047 L34.1478261,14.7515688 C34.1478261,12.0418034 33.4547977,9.57435677 32.0675643,7.33705764 C30.6944504,5.09975851 28.7094947,3.32275435 26.1409363,1.99387391 C23.5723778,0.664993461 20.5955326,0 17.1962814,0 C13.7970301,0 10.6436922,0.63954446 8.04807148,1.9175269 C5.45127415,3.19550934 3.4533757,4.9470645 2.06614233,7.18436363 C0.680085572,9.40838503 0,11.9654564 0,14.8290222 L0,16.7465491 L10.7531177,16.7465491 L10.7531177,15.4685667 C10.7531177,13.3972393 11.2967155,11.7740356 12.3709684,10.6111269 C13.4452212,9.4349405 14.9124646,8.84740053 16.7750519,8.84740053 C18.6376392,8.84740053 20.1190021,9.4094915 21.2203171,10.5215022 C22.3216322,11.6467906 22.8781728,13.1549206 22.8781728,15.0724475 L22.8781728,16.1844582 C22.8781728,18.6264558 21.80392,21.2078697 19.656591,23.9187415 L0.244736677,47.5940578 L0.244736677,55.8782609 L34.1478261,55.8782609 L34.1478261,46.7121946 L14.232379,46.7121946 L28.8048009,28.9432595 C30.5579626,26.8088628 31.8898949,24.7375355 32.7876549,22.7171061 L32.7888316,22.7159996 Z" id="路径" fill="url(#linearGradient-13)" fill-rule="nonzero"></path>
                        <g id="矩形" fill="none" fill-rule="evenodd">
                            <use fill="#D8D8D8" xlink:href="#path-15"></use>
                            <use fill="url(#linearGradient-14)" xlink:href="#path-15"></use>
                        </g>
                    </g>
                </g>
                <g id="资源-3备份" mask="url(#mask-2)" fill="#FFFFFF" opacity="0.131859189">
                    <g transform="translate(276, 186)">
                        <path d="M20.5144882,77.4258376 L49.6092602,106.697651 L38.3752701,118 L9.28951413,88.7281864 L1.5537489,80.9453491 C-0.637149647,78.7139062 -0.53797317,76.4461797 2.02258315,73.8700424 L36.7073021,38.9742672 C42.6939549,34.1485452 50.3305436,35.3640466 56.3262125,41.3961991 L77,62.1957865 L65.7660099,73.4981353 L47.0396878,56.4720448 C44.4610994,53.8777657 44.0012812,53.7961275 41.7653024,56.0366413 L20.5054721,77.4258376 L20.5054721,77.4258376 L20.5144882,77.4258376 Z" id="路径"></path>
                        <path d="M88.4764958,70.34042 L59.3817238,40.9034423 L70.6157138,29.5373207 L99.7104859,58.9742985 L107.446251,66.8010499 C109.63715,69.0450835 109.537973,71.3256055 106.977417,73.9162785 L72.2926979,109.008951 C66.3060451,113.861902 58.6694564,112.639542 52.6737875,106.573353 L32,85.6564056 L43.2339901,74.2902841 L60.1571035,91.4124431 C62.7356919,94.0213603 64.9987188,94.1034591 67.2346976,91.8503033 L88.4945279,70.34042 L88.4945279,70.34042 L88.4764958,70.34042 Z M47.1469529,11.7583713 L40.2045995,5.16310177 L33.244214,11.7036388 L40.1865674,18.2989084 L47.1469529,11.7583713 L47.1469529,11.7583713 Z M63.1414139,7.28854825 L55.5318733,0 L47.8411882,7.16996111 L55.4507289,14.4585094 L63.1414139,7.28854825 L63.1414139,7.28854825 Z M65.0888792,23.6900623 L55.4507289,14.4585094 L45.713402,23.5349869 L55.3515524,32.7665398 L65.0888792,23.6809403 L65.0888792,23.6809403 L65.0888792,23.6900623 Z" id="形状"></path>
                    </g>
                </g>
            </g>
            <g id="编组" transform="translate(81, 50)" fill="#FFFFFF">
                <path d="M11.0651287,0.00285171103 L11.0651287,123.436312 C11.0651287,139.229087 17.5020408,153.590304 27.8715173,164.007605 C38.2409938,174.424905 52.5430346,180.889734 68.2676131,180.889734 L168.810648,180.889734 L147.884295,154.910646 L77.5666371,154.910646 C67.4015972,154.910646 58.1735581,150.75 51.4896185,144.037072 C44.8056788,137.324144 40.6629991,128.056084 40.6629991,117.846958 L40.6629991,37.0636882 C40.6629991,26.8545627 44.8056788,17.5865019 51.4896185,10.8735741 C58.1735581,4.16064639 67.4015972,0 77.5666371,0 L191.997161,0 L191.997161,49.4572243 L96.7410825,49.4572243 C93.9499556,49.4572243 91.411535,50.6036122 89.571606,52.4515209 C87.731677,54.2994297 86.5902396,56.8488593 86.5902396,59.6520913 L86.5902396,99 C86.5902396,101.803232 87.731677,104.352662 89.571606,106.20057 C91.411535,108.048479 93.9499556,109.194867 96.7410825,109.194867 L165.153505,109.194867 L180.932032,130.505703 L180.932032,109.194867 L191.997161,109.194867 L191.997161,164.021863 L159.636557,120.310837 L96.7439219,120.310837 C90.8976043,120.310837 85.590772,117.918251 81.7490683,114.062738 C77.9073647,110.201521 75.5251109,104.874525 75.5251109,99.0028517 L75.5251109,59.654943 C75.5251109,53.78327 77.9073647,48.4534221 81.7490683,44.595057 C85.590772,40.736692 90.8976043,38.3441065 96.7439219,38.3441065 L180.932032,38.3441065 L180.932032,11.1131179 L77.5694765,11.1131179 C70.4596273,11.1131179 64,14.0275665 59.317835,18.730038 C54.6356699,23.4325095 51.7338066,29.9173004 51.7338066,37.0608365 L51.7338066,117.844106 C51.7338066,124.984791 54.6356699,131.469582 59.317835,136.174905 C63.9971606,140.874525 70.4567879,143.791825 77.5694765,143.791825 L153.168412,143.791825 L192,192 L68.2704525,192 C49.4906832,192 32.4230701,184.286122 20.051819,171.861217 C7.68056788,159.436312 0,142.294677 0,123.43346 L0,0 L11.0651287,0 L11.0651287,0.00285171103 Z" id="路径"></path>
                <path d="M113.032258,86.7096774 C115.589252,86.7096774 117.677419,84.6248094 117.677419,82.0631693 C117.677419,79.5069165 115.591947,77.4193548 113.032258,77.4193548 C110.472569,77.4193548 108.387097,79.5042228 108.387097,82.0631693 C108.389791,84.6221158 110.475264,86.7096774 113.032258,86.7096774 Z" id="路径"></path>
                <path d="M134.709677,86.7096774 C137.269366,86.7096774 139.354839,84.6248094 139.354839,82.0631693 C139.354839,79.5069165 137.269366,77.4193548 134.709677,77.4193548 C132.152683,77.4193548 130.064516,79.5042228 130.064516,82.0631693 C130.067211,84.6221158 132.152683,86.7096774 134.709677,86.7096774 Z" id="路径"></path>
                <path d="M159.485219,86.7096774 C162.042955,86.7096774 164.129032,84.6248094 164.129032,82.0631693 C164.129032,79.5069165 162.042955,77.4193548 159.485219,77.4193548 C156.924787,77.4193548 154.83871,79.5042228 154.83871,82.0631693 C154.83871,84.6221158 156.924787,86.7096774 159.485219,86.7096774 Z" id="路径"></path>
            </g>
        </g>
    </g>
</svg>